<?xml version="1.0" encoding="utf-8"?>
<!-- Generator: Adobe Illustrator 16.0.4, SVG Export Plug-In . SVG Version: 6.00 Build 0)  -->
<!DOCTYPE svg PUBLIC "-//W3C//DTD SVG 1.1//EN" "http://www.w3.org/Graphics/SVG/1.1/DTD/svg11.dtd">
<svg version="1.1" id="Layer_1" xmlns="http://www.w3.org/2000/svg" xmlns:xlink="http://www.w3.org/1999/xlink" x="0px" y="0px"
	 width="256px" height="256px" viewBox="0 0 256 256" enable-background="new 0 0 256 256" xml:space="preserve">
<rect fill="#F0DB4F" width="256" height="256"/>
<g>
	<g>
		<path fill="#323330" d="M46,204.905C70.12,222.784,98.129,233,128,233c29.861,0,57.867-10.216,82-28.095v-35.279
			c-24.132,17.861-52.139,28.104-82,28.104c-29.872,0-57.881-10.24-82-28.104V204.905z"/>
	</g>
	<polygon fill="#323330" points="128.015,114.877 46,167.954 46,202.86 128.015,149.784 210,202.86 210,167.954 	"/>
	<polygon fill="#323330" points="128.015,68.943 46,122.019 46,156.915 128.015,103.841 210,156.915 210,122.019 	"/>
	<polygon fill="#323330" points="128.015,23 46,76.084 46,110.99 128.015,57.907 210,110.99 210,76.084 	"/>
</g>
</svg>
